<?xml version="1.0" encoding="UTF-8"?>
<svg width="151px" height="48px" viewBox="0 0 151 48" version="1.1" xmlns="http://www.w3.org/2000/svg" xmlns:xlink="http://www.w3.org/1999/xlink">
    <title>Google</title>
    <defs>
        <linearGradient x1="61.0265807%" y1="4.94692737%" x2="26.4999303%" y2="71.9158021%" id="linearGradient-1">
            <stop stop-color="#00A0FF" offset="0%"></stop>
            <stop stop-color="#00A1FF" offset="0.657445%"></stop>
            <stop stop-color="#00BEFF" offset="26.01%"></stop>
            <stop stop-color="#00D2FF" offset="51.22%"></stop>
            <stop stop-color="#00DFFF" offset="76.04%"></stop>
            <stop stop-color="#00E3FF" offset="100%"></stop>
        </linearGradient>
        <linearGradient x1="107.622047%" y1="50.0163551%" x2="-130.536417%" y2="50.0163551%" id="linearGradient-2">
            <stop stop-color="#FFE000" offset="0%"></stop>
            <stop stop-color="#FFBD00" offset="40.87%"></stop>
            <stop stop-color="#FFA500" offset="77.54%"></stop>
            <stop stop-color="#FF9C00" offset="100%"></stop>
        </linearGradient>
        <linearGradient x1="86.2529976%" y1="30.8965558%" x2="-50.1876499%" y2="136.080795%" id="linearGradient-3">
            <stop stop-color="#FF3A44" offset="0%"></stop>
            <stop stop-color="#C31162" offset="100%"></stop>
        </linearGradient>
        <linearGradient x1="-18.7699221%" y1="-11.8318633%" x2="42.1204314%" y2="35.08088%" id="linearGradient-4">
            <stop stop-color="#32A071" offset="0%"></stop>
            <stop stop-color="#2DA771" offset="6.85%"></stop>
            <stop stop-color="#15CF74" offset="47.62%"></stop>
            <stop stop-color="#06E775" offset="80.09%"></stop>
            <stop stop-color="#00F076" offset="100%"></stop>
        </linearGradient>
    </defs>
    <g id="Google" stroke="none" stroke-width="1" fill="none" fill-rule="evenodd">
        <g id="google-play-badge-150-px" fill-rule="nonzero">
            <path d="M145.407407,48 L5.5925926,48 C2.51666667,48 0,45.3 0,42 L0,6 C0,2.7 2.51666667,0 5.5925926,0 L145.407407,0 C148.483333,0 151,2.7 151,6 L151,42 C151,45.3 148.483333,48 145.407407,48 Z" id="Path" fill="#000000"></path>
            <g id="Group" transform="translate(46.555556, 8.666667)" fill="#FFFFFF" stroke="#FFFFFF" stroke-width="0.2">
                <path d="M7.13333333,4.71111111 C7.13333333,5.64444444 6.85555556,6.38888889 6.3,6.93333333 C5.67777778,7.58888889 4.85555556,7.92222222 3.85555556,7.92222222 C2.88888889,7.92222222 2.07777778,7.58888889 1.4,6.92222222 C0.722222222,6.25555556 0.388888889,5.42222222 0.388888889,4.44444444 C0.388888889,3.45555556 0.722222222,2.63333333 1.4,1.96666667 C2.07777778,1.3 2.88888889,0.966666667 3.85555556,0.966666667 C4.33333333,0.966666667 4.78888889,1.05555556 5.22222222,1.24444444 C5.65555556,1.43333333 6,1.67777778 6.26666667,1.98888889 L5.67777778,2.57777778 C5.23333333,2.05555556 4.63333333,1.78888889 3.85555556,1.78888889 C3.15555556,1.78888889 2.54444444,2.03333333 2.03333333,2.53333333 C1.52222222,3.02222222 1.26666667,3.66666667 1.26666667,4.45555556 C1.26666667,5.24444444 1.52222222,5.88888889 2.03333333,6.37777778 C2.54444444,6.86666667 3.15555556,7.12222222 3.85555556,7.12222222 C4.6,7.12222222 5.22222222,6.87777778 5.72222222,6.37777778 C6.04444444,6.05555556 6.23333333,5.6 6.27777778,5.02222222 L3.85555556,5.02222222 L3.85555556,4.22222222 L7.08888889,4.22222222 C7.11111111,4.38888889 7.13333333,4.55555556 7.13333333,4.71111111 Z" id="Path"></path>
                <polygon id="Path" points="12.2555556 1.93333333 9.22222222 1.93333333 9.22222222 4.04444444 11.9555556 4.04444444 11.9555556 4.84444444 9.22222222 4.84444444 9.22222222 6.95555556 12.2555556 6.95555556 12.2555556 7.77777778 8.36666667 7.77777778 8.36666667 1.11111111 12.2555556 1.11111111"></polygon>
                <polygon id="Path" points="15.8666667 7.77777778 15.0111111 7.77777778 15.0111111 1.93333333 13.1444444 1.93333333 13.1444444 1.11111111 17.7222222 1.11111111 17.7222222 1.93333333 15.8555556 1.93333333 15.8555556 7.77777778"></polygon>
                <polygon id="Path" points="21.0444444 7.77777778 21.0444444 1.11111111 21.9 1.11111111 21.9 7.77777778"></polygon>
                <polygon id="Path" points="25.7 7.77777778 24.8444444 7.77777778 24.8444444 1.93333333 22.9777778 1.93333333 22.9777778 1.11111111 27.5555556 1.11111111 27.5555556 1.93333333 25.6888889 1.93333333 25.6888889 7.77777778"></polygon>
                <path d="M36.2333333,6.91111111 C35.5777778,7.58888889 34.7666667,7.92222222 33.7888889,7.92222222 C32.8111111,7.92222222 32,7.58888889 31.3444444,6.91111111 C30.6888889,6.23333333 30.3666667,5.41111111 30.3666667,4.44444444 C30.3666667,3.47777778 30.6888889,2.64444444 31.3444444,1.97777778 C32,1.3 32.8111111,0.966666667 33.7888889,0.966666667 C34.7555556,0.966666667 35.5666667,1.3 36.2333333,1.97777778 C36.8888889,2.65555556 37.2222222,3.47777778 37.2222222,4.44444444 C37.2111111,5.42222222 36.8888889,6.24444444 36.2333333,6.91111111 Z M31.9777778,6.35555556 C32.4666667,6.85555556 33.0777778,7.1 33.7888889,7.1 C34.5,7.1 35.1111111,6.85555556 35.6,6.35555556 C36.0888889,5.85555556 36.3444444,5.22222222 36.3444444,4.44444444 C36.3444444,3.66666667 36.1,3.03333333 35.6,2.53333333 C35.1111111,2.03333333 34.5,1.78888889 33.7888889,1.78888889 C33.0777778,1.78888889 32.4666667,2.03333333 31.9777778,2.53333333 C31.4888889,3.03333333 31.2333333,3.66666667 31.2333333,4.44444444 C31.2333333,5.22222222 31.4888889,5.85555556 31.9777778,6.35555556 Z" id="Shape"></path>
                <polygon id="Path" points="38.4222222 7.77777778 38.4222222 1.11111111 39.4666667 1.11111111 42.7111111 6.3 42.7444444 6.3 42.7111111 5.01111111 42.7111111 1.11111111 43.5666667 1.11111111 43.5666667 7.77777778 42.6777778 7.77777778 39.2888889 2.34444444 39.2555556 2.34444444 39.2888889 3.63333333 39.2888889 7.77777778"></polygon>
            </g>
            <path d="M76.7111111,26.1666667 C74.1,26.1666667 71.9666667,28.1555556 71.9666667,30.8888889 C71.9666667,33.6111111 74.1,35.6111111 76.7111111,35.6111111 C79.3222222,35.6111111 81.4555556,33.6111111 81.4555556,30.8888889 C81.4555556,28.1555556 79.3222222,26.1666667 76.7111111,26.1666667 Z M76.7111111,33.7555556 C75.2777778,33.7555556 74.0444444,32.5777778 74.0444444,30.8888889 C74.0444444,29.1888889 75.2777778,28.0222222 76.7111111,28.0222222 C78.1444444,28.0222222 79.3777778,29.1888889 79.3777778,30.8888889 C79.3777778,32.5777778 78.1333333,33.7555556 76.7111111,33.7555556 Z M66.3555556,26.1666667 C63.7444444,26.1666667 61.6111111,28.1555556 61.6111111,30.8888889 C61.6111111,33.6111111 63.7444444,35.6111111 66.3555556,35.6111111 C68.9666667,35.6111111 71.1,33.6111111 71.1,30.8888889 C71.1,28.1555556 68.9666667,26.1666667 66.3555556,26.1666667 Z M66.3555556,33.7555556 C64.9222222,33.7555556 63.6888889,32.5777778 63.6888889,30.8888889 C63.6888889,29.1888889 64.9222222,28.0222222 66.3555556,28.0222222 C67.7888889,28.0222222 69.0222222,29.1888889 69.0222222,30.8888889 C69.0222222,32.5777778 67.7888889,33.7555556 66.3555556,33.7555556 Z M54.0444444,27.6222222 L54.0444444,29.6222222 L58.8444444,29.6222222 C58.7,30.7444444 58.3222222,31.5777778 57.7555556,32.1444444 C57.0555556,32.8444444 55.9666667,33.6111111 54.0555556,33.6111111 C51.1,33.6111111 48.7888889,31.2333333 48.7888889,28.2777778 C48.7888889,25.3222222 51.1,22.9444444 54.0555556,22.9444444 C55.6444444,22.9444444 56.8111111,23.5666667 57.6666667,24.3777778 L59.0777778,22.9666667 C57.8777778,21.8222222 56.2888889,20.9444444 54.0444444,20.9444444 C50,20.9444444 46.6,24.2333333 46.6,28.2888889 C46.6,32.3333333 50,35.6333333 54.0444444,35.6333333 C56.2333333,35.6333333 57.8777778,34.9222222 59.1666667,33.5777778 C60.4888889,32.2555556 60.9,30.3888889 60.9,28.8888889 C60.9,28.4222222 60.8666667,27.9888889 60.7888889,27.6333333 L54.0444444,27.6333333 L54.0444444,27.6222222 Z M104.388889,29.1777778 C104,28.1222222 102.8,26.1666667 100.344444,26.1666667 C97.9111111,26.1666667 95.8888889,28.0777778 95.8888889,30.8888889 C95.8888889,33.5333333 97.8888889,35.6111111 100.577778,35.6111111 C102.744444,35.6111111 104,34.2888889 104.511111,33.5222222 L102.9,32.4444444 C102.366667,33.2333333 101.633333,33.7555556 100.577778,33.7555556 C99.5222222,33.7555556 98.7666667,33.2666667 98.2888889,32.3222222 L104.611111,29.7111111 L104.388889,29.1777778 Z M97.9444444,30.7555556 C97.8888889,28.9333333 99.3555556,28 100.411111,28 C101.233333,28 101.933333,28.4111111 102.166667,29 L97.9444444,30.7555556 Z M92.8111111,35.3333333 L94.8888889,35.3333333 L94.8888889,21.4444444 L92.8111111,21.4444444 L92.8111111,35.3333333 Z M89.4111111,27.2222222 L89.3333333,27.2222222 C88.8666667,26.6666667 87.9777778,26.1666667 86.8444444,26.1666667 C84.4777778,26.1666667 82.3111111,28.2444444 82.3111111,30.9111111 C82.3111111,33.5555556 84.4777778,35.6222222 86.8444444,35.6222222 C87.9666667,35.6222222 88.8666667,35.1222222 89.3333333,34.5444444 L89.4,34.5444444 L89.4,35.2222222 C89.4,37.0333333 88.4333333,38 86.8777778,38 C85.6111111,38 84.8222222,37.0888889 84.5,36.3222222 L82.6888889,37.0777778 C83.2111111,38.3333333 84.5888889,39.8666667 86.8777778,39.8666667 C89.3111111,39.8666667 91.3666667,38.4333333 91.3666667,34.9444444 L91.3666667,26.4555556 L89.4,26.4555556 L89.4,27.2222222 L89.4111111,27.2222222 Z M87.0222222,33.7555556 C85.5888889,33.7555556 84.3888889,32.5555556 84.3888889,30.9111111 C84.3888889,29.2444444 85.5888889,28.0333333 87.0222222,28.0333333 C88.4333333,28.0333333 89.5444444,29.2555556 89.5444444,30.9111111 C89.5555556,32.5555556 88.4444444,33.7555556 87.0222222,33.7555556 Z M114.122222,21.4444444 L109.155556,21.4444444 L109.155556,35.3333333 L111.233333,35.3333333 L111.233333,30.0666667 L114.133333,30.0666667 C116.433333,30.0666667 118.688889,28.4 118.688889,25.7555556 C118.688889,23.1111111 116.411111,21.4444444 114.122222,21.4444444 Z M114.166667,28.1333333 L111.222222,28.1333333 L111.222222,23.3666667 L114.166667,23.3666667 C115.722222,23.3666667 116.6,24.6555556 116.6,25.7444444 C116.6,26.8333333 115.722222,28.1333333 114.166667,28.1333333 Z M126.988889,26.1444444 C125.488889,26.1444444 123.933333,26.8111111 123.288889,28.2666667 L125.133333,29.0333333 C125.522222,28.2666667 126.255556,28.0111111 127.022222,28.0111111 C128.088889,28.0111111 129.188889,28.6555556 129.2,29.8 L129.2,29.9444444 C128.822222,29.7333333 128.022222,29.4111111 127.033333,29.4111111 C125.044444,29.4111111 123.033333,30.5 123.033333,32.5333333 C123.033333,34.3888889 124.655556,35.5888889 126.477778,35.5888889 C127.866667,35.5888889 128.644444,34.9666667 129.122222,34.2333333 L129.188889,34.2333333 L129.188889,35.3111111 L131.189037,35.3111111 L131.189037,29.9888889 C131.2,27.5222222 129.355556,26.1444444 126.988889,26.1444444 Z M126.733333,33.7555556 C126.055556,33.7555556 125.111111,33.4111111 125.111111,32.5777778 C125.111111,31.5111111 126.288889,31.1 127.311111,31.1 C128.222222,31.1 128.655556,31.3 129.2,31.5666667 C129.044444,32.8444444 127.933333,33.7555556 126.733333,33.7555556 Z M138.488889,26.4444444 L136.111111,32.4666667 L136.044444,32.4666667 L133.577778,26.4444444 L131.344444,26.4444444 L135.044444,34.8666667 L132.933333,39.5444444 L135.1,39.5444444 L140.8,26.4444444 L138.488889,26.4444444 Z M119.822222,35.3333333 L121.9,35.3333333 L121.9,21.4444444 L119.822222,21.4444444 L119.822222,35.3333333 Z" id="Shape" fill="#FFFFFF"></path>
            <g id="Group" transform="translate(11.000000, 9.777778)">
                <path d="M1.6,0.6 C1.27777778,0.944444444 1.08888889,1.47777778 1.08888889,2.15555556 L1.08888889,26.7333333 C1.08888889,27.4222222 1.27777778,27.9555556 1.6,28.2888889 L1.67777778,28.3666667 L15.4444444,14.6111111 L15.4444444,14.4444444 L15.4444444,14.2777778 L1.67777778,0.522222222 L1.6,0.6 Z" id="Path" fill="url(#linearGradient-1)"></path>
                <path d="M20.0333333,19.2 L15.4444444,14.6111111 L15.4444444,14.4444444 L15.4444444,14.2777778 L20.0333333,9.68888889 L20.1333333,9.74444444 L25.5666667,12.8333333 C27.1222222,13.7111111 27.1222222,15.1555556 25.5666667,16.0444444 L20.1333333,19.1333333 L20.0333333,19.2 Z" id="Path" fill="url(#linearGradient-2)"></path>
                <path d="M20.1333333,19.1333333 L15.4444444,14.4444444 L1.6,28.2888889 C2.11111111,28.8333333 2.95555556,28.9 3.91111111,28.3555556 L20.1333333,19.1333333" id="Path" fill="url(#linearGradient-3)"></path>
                <path d="M20.1333333,9.75555556 L3.9,0.533333333 C2.94444444,-0.0111111111 2.1,0.0555555556 1.58888889,0.6 L15.4444444,14.4444444 L20.1333333,9.75555556 Z" id="Path" fill="url(#linearGradient-4)"></path>
                <g id="Path" transform="translate(0.000000, 18.888889)" fill="#000000">
                    <path d="M20.0333333,0.144444444 L3.9,9.31111111 C3,9.82222222 2.18888889,9.78888889 1.67777778,9.32222222 L1.67777778,9.32222222 L1.6,9.4 L1.6,9.4 L1.67777778,9.47777778 L1.67777778,9.47777778 C2.2,9.94444444 3,9.97777778 3.9,9.46666667 L20.1333333,0.244444444 L20.0333333,0.144444444 Z" opacity="0.2"></path>
                    <path d="M1.6,9.24444444 C1.27777778,8.9 1.08888889,8.36666667 1.08888889,7.68888889 L1.08888889,7.85555556 C1.08888889,8.54444444 1.27777778,9.07777778 1.6,9.41111111 L1.67777778,9.33333333 L1.6,9.24444444 Z" opacity="0.12"></path>
                </g>
                <path d="M25.5666667,15.8888889 L20.0222222,19.0333333 L20.1222222,19.1333333 L25.5555556,16.0444444 C26.3333333,15.6 26.7222222,15.0222222 26.7222222,14.4444444 L26.7222222,14.4444444 C26.6666667,14.9666667 26.2777778,15.4888889 25.5666667,15.8888889 Z" id="Path" fill="#000000" opacity="0.12"></path>
                <path d="M3.9,0.688888889 L25.5666667,13 C26.2666667,13.4 26.6666667,13.9111111 26.7333333,14.4444444 L26.7333333,14.4444444 C26.7333333,13.8666667 26.3444444,13.2777778 25.5666667,12.8444444 L3.9,0.533333333 C2.34444444,-0.344444444 1.07777778,0.388888889 1.07777778,2.16666667 L1.07777778,2.33333333 C1.07777778,0.544444444 2.35555556,-0.188888889 3.9,0.688888889 Z" id="Path" fill="#FFFFFF" opacity="0.25"></path>
            </g>
        </g>
    </g>
</svg>