<?xml version="1.0" encoding="UTF-8"?>
<svg width="151px" height="48px" viewBox="0 0 151 48" version="1.1" xmlns="http://www.w3.org/2000/svg" xmlns:xlink="http://www.w3.org/1999/xlink">
    <title>Apple</title>
    <g id="Apple" stroke="none" stroke-width="1" fill="none" fill-rule="evenodd">
        <path d="M9.78735848,48.0912403 C9.39720043,48.0912403 9.01646724,48.0863465 8.62936969,48.0778136 C7.82746579,48.067575 7.02743614,47.9991668 6.23584201,47.8731498 C5.49772043,47.7485799 4.78267902,47.5168572 4.11430319,47.1856249 C3.452056,46.8571372 2.84803334,46.4264149 2.32537449,45.9099583 C1.79515027,45.3995853 1.35371439,44.8076398 1.01856016,44.1575793 C0.679712813,43.503294 0.445210276,42.8019791 0.323221372,42.0780645 C0.191483946,41.3002102 0.12020854,40.5136767 0.110009756,39.7252464 C0.101891067,39.4606014 0.0912625,38.5794553 0.0912625,38.5794553 L0.0912625,9.59203297 C0.0912625,9.59203297 0.102582564,8.72442657 0.110073783,8.46953166 C0.119839034,7.68235029 0.190699973,6.89703737 0.322043266,6.12039018 C0.444257342,5.39449255 0.67894142,4.69115525 1.01797111,4.03472668 C1.35189356,3.38511528 1.79087869,2.79272768 2.31790888,2.28052821 C2.84434671,1.76346212 3.45030153,1.33052187 4.11367572,0.997495687 C4.78051543,0.667327664 5.4942055,0.437239546 6.23083505,0.314940003 C7.02502891,0.187657104 7.82783595,0.118841818 8.63251985,0.109071552 L9.78798595,0.09375 L141.388277,0.09375 L142.557548,0.109686422 C143.354913,0.118971207 144.150428,0.187172576 144.937323,0.313710264 C145.68141,0.437543879 146.402537,0.669237445 147.076994,1.00117236 C148.405974,1.67231662 149.487337,2.73413016 150.169523,4.03778848 C150.503142,4.68968545 150.734206,5.38728562 150.854873,6.10691323 C150.987781,6.88993285 151.062166,7.68141705 151.077433,8.47505294 C151.081147,8.83042259 151.081147,9.21214381 151.081147,9.59203297 C151.091263,10.0625966 151.091263,10.5104853 151.091263,10.9620507 L151.091263,37.2241066 C151.091263,37.6799886 151.091263,38.1248281 151.081147,38.5733066 C151.081147,38.9813794 151.081147,39.3551952 151.076152,39.739928 C151.061216,40.5194018 150.988071,41.2967586 150.857306,42.0657671 C150.737819,42.7949038 150.504592,43.5016928 150.16581,44.1613439 C149.828286,44.8043485 149.389385,45.3911665 148.865283,45.9001706 C148.342154,46.4194026 147.737065,46.852645 147.07328,47.1832407 C146.400692,47.5170193 145.680625,47.7495989 144.937323,47.8731498 C144.145789,47.9998393 143.345682,48.0682519 142.543718,48.0778136 C142.168645,48.0863465 141.7759,48.0912403 141.394553,48.0912403 L140.006436,48.09375 L9.78735848,48.0912403 Z" id="Path" fill="#000000" fill-rule="nonzero"></path>
        <g id="_Group_2" transform="translate(11.250000, 9.000000)" fill="#FFFFFF" fill-rule="nonzero">
            <g id="_Group_3">
                <path d="M18.7111,15.37585 C18.7384212,13.2552614 19.8501537,11.2964826 21.6568,10.185775 C20.5118908,8.55064096 18.6629901,7.55109794 16.66785,7.488675 C14.5688,7.26835 12.5338625,8.7447125 11.464225,8.7447125 C10.3738875,8.7447125 8.7270125,7.51055 6.9536,7.5470375 C4.62025158,7.62242302 2.49767147,8.91690685 1.36245,10.956875 C-1.05505,15.1424 0.7481875,21.2937125 3.06395,24.676975 C4.222575,26.3336625 5.576675,28.184225 7.3484875,28.1186 C9.0823125,28.0466875 9.7298625,27.013 11.8227375,27.013 C13.8961875,27.013 14.503725,28.1186 16.3114875,28.076875 C18.1719625,28.046675 19.34415,26.412825 20.462125,24.74045 C21.2945952,23.5599996 21.9351796,22.2553449 22.36015,20.8748125 C20.1504707,19.9402266 18.7136791,17.7750429 18.7111,15.37585 L18.7111,15.37585 Z" id="_Path_"></path>
                <path d="M15.2965625,5.2636125 C16.3109707,4.04585238 16.8107312,2.48062807 16.6897125,0.9003375 C15.1399223,1.06311311 13.7083503,1.80381209 12.6802375,2.97485 C11.6650234,4.13023628 11.1507183,5.64179085 11.2506,7.1765875 C12.821171,7.19275846 14.3123951,6.48769152 15.2965625,5.2636125 L15.2965625,5.2636125 Z" id="_Path_2"></path>
            </g>
        </g>
        <path d="M51.8778375,32.9245625 L45.9610875,32.9245625 L44.5401875,37.120125 L42.0340875,37.120125 L47.6383375,21.597625 L50.2420875,21.597625 L55.8463375,37.120125 L53.2975,37.120125 L51.8778375,32.9245625 Z M46.573875,30.988525 L51.263875,30.988525 L48.9518625,24.1794375 L48.8871625,24.1794375 L46.573875,30.988525 Z" id="Shape" fill="#FFFFFF" fill-rule="nonzero"></path>
        <path d="M67.9496125,31.4621625 C67.9496125,34.9790125 66.0672875,37.238525 63.2267125,37.238525 C61.7584441,37.3153308 60.3754155,36.5462884 59.665925,35.258525 L59.612175,35.258525 L59.612175,40.864 L57.289175,40.864 L57.289175,25.802975 L59.53775,25.802975 L59.53775,27.6853 L59.580475,27.6853 C60.3214854,26.4056099 61.7060053,25.6368985 63.1839875,25.6845625 C66.05625,25.684575 67.9496125,27.955075 67.9496125,31.4621625 Z M65.5619125,31.4621625 C65.5619125,29.1709125 64.377825,27.66455 62.5711875,27.66455 C60.7962875,27.66455 59.6024375,29.2026375 59.6024375,31.4621625 C59.6024375,33.7424375 60.7962875,35.2695375 62.5711875,35.2695375 C64.3778375,35.2695375 65.5619125,33.774175 65.5619125,31.4621625 Z" id="Shape" fill="#FFFFFF" fill-rule="nonzero"></path>
        <path d="M80.4056625,31.4621625 C80.4056625,34.9790125 78.5233375,37.238525 75.6827625,37.238525 C74.2144941,37.3153308 72.8314655,36.5462884 72.121975,35.258525 L72.068225,35.258525 L72.068225,40.864 L69.745225,40.864 L69.745225,25.802975 L71.99375,25.802975 L71.99375,27.6853 L72.036475,27.6853 C72.7774908,26.4056107 74.162016,25.6369038 75.64,25.684575 C78.51235,25.684575 80.4056625,27.955075 80.4056625,31.4621625 Z M78.017975,31.4621625 C78.017975,29.1709125 76.833875,27.66455 75.0272375,27.66455 C73.2523375,27.66455 72.0584875,29.2026375 72.0584875,31.4621625 C72.0584875,33.7424375 73.2523375,35.2695375 75.0272375,35.2695375 C76.8338875,35.2695375 78.017975,33.774175 78.017975,31.4621625 L78.017975,31.4621625 Z" id="Shape" fill="#FFFFFF" fill-rule="nonzero"></path>
        <path d="M88.6380875,32.7951625 C88.8102125,34.334475 90.3055875,35.3451625 92.349025,35.3451625 C94.3070375,35.3451625 95.715725,34.334425 95.715725,32.946475 C95.715725,31.7416375 94.8661125,31.020225 92.8544,30.525825 L90.8426875,30.0412 C87.99235,29.352725 86.6691,28.0197125 86.6691,25.856625 C86.6691,23.1784 89.0030875,21.3388 92.3172875,21.3388 C95.5972875,21.3388 97.84585,23.1784 97.9215375,25.856625 L95.5765375,25.856625 C95.4361625,24.30755 94.1556375,23.3725 92.2843,23.3725 C90.4129625,23.3725 89.13245,24.31855 89.13245,25.6955 C89.13245,26.7929125 89.950325,27.4386625 91.95105,27.933 L93.66125,28.352925 C96.8460625,29.1061 98.1693125,30.385425 98.1693125,32.6559 C98.1693125,35.55995 95.856075,37.3788 92.176875,37.3788 C88.7344875,37.3788 86.410275,35.602675 86.260125,32.79505 L88.6380875,32.7951625 Z" id="Path" fill="#FFFFFF" fill-rule="nonzero"></path>
        <path d="M103.182763,23.12475 L103.182763,25.802975 L105.334863,25.802975 L105.334863,27.642575 L103.182763,27.642575 L103.182763,33.8815875 C103.182763,34.850825 103.613675,35.3024875 104.559713,35.3024875 C104.815202,35.2980324 105.070278,35.2800908 105.323875,35.2487375 L105.323875,37.07735 C104.898535,37.1568244 104.466214,37.1928181 104.033588,37.184775 C101.742338,37.184775 100.848775,36.324175 100.848775,34.12935 L100.848775,27.642575 L99.203275,27.642575 L99.203275,25.802975 L100.84875,25.802975 L100.84875,23.12475 L103.182763,23.12475 Z" id="Path" fill="#FFFFFF" fill-rule="nonzero"></path>
        <path d="M106.58125,31.4621625 C106.58125,27.901375 108.678412,25.663825 111.948688,25.663825 C115.229938,25.663825 117.317337,27.901325 117.317337,31.4621625 C117.317337,35.032725 115.240925,37.2605 111.948688,37.2605 C108.657612,37.2605 106.58125,35.0327125 106.58125,31.4621625 Z M114.950388,31.4621625 C114.950388,29.0195375 113.831,27.5778875 111.948675,27.5778875 C110.06635,27.5778875 108.948188,29.030525 108.948188,31.4621625 C108.948188,33.91455 110.06635,35.345225 111.948675,35.345225 C113.831,35.345225 114.950388,33.91455 114.950388,31.4621625 L114.950388,31.4621625 Z" id="Shape" fill="#FFFFFF" fill-rule="nonzero"></path>
        <path d="M119.232563,25.802975 L121.44815,25.802975 L121.44815,27.729225 L121.5019,27.729225 C121.81087,26.4892105 122.947066,25.6357895 124.224063,25.68455 C124.491768,25.6836153 124.758734,25.7126884 125.019963,25.771225 L125.019963,27.944075 C124.682001,27.8408042 124.329449,27.7933891 123.976213,27.8037 C123.293273,27.7759943 122.632339,28.0481684 122.166952,28.5487575 C121.701565,29.0493465 121.478221,29.7283384 121.555562,30.40745 L121.555562,37.1201 L119.232563,37.1201 L119.232563,25.802975 Z" id="Path" fill="#FFFFFF" fill-rule="nonzero"></path>
        <path d="M135.730375,33.7961375 C135.417875,35.850575 133.417137,37.2604875 130.857325,37.2604875 C127.565088,37.2604875 125.521637,35.054675 125.521637,31.5158625 C125.521637,27.9660625 127.576075,25.6638125 130.759675,25.6638125 C133.890775,25.6638125 135.859775,27.8146875 135.859775,31.2460875 L135.859775,32.0419875 L127.866613,32.0419875 L127.866613,32.1823625 C127.791984,33.024902 128.082914,33.8588993 128.6654,34.4722124 C129.247885,35.0855255 130.065784,35.4190416 130.91105,35.387925 C132.038353,35.4935495 133.101179,34.8462221 133.524575,33.796125 L135.730375,33.7961375 Z M127.877559,30.4184625 L133.53555,30.4184625 C133.577707,29.6613719 133.302121,28.9210288 132.775188,28.3757894 C132.248255,27.83055 131.517751,27.5298505 130.759675,27.5461375 C129.995602,27.5415778 129.261363,27.8424183 128.720157,28.3817916 C128.17895,28.9211648 127.87562,29.6543786 127.877559,30.4184625 L127.877559,30.4184625 Z" id="Shape" fill="#FFFFFF" fill-rule="nonzero"></path>
        <g id="_Group_4" transform="translate(42.750000, 9.000000)" fill="#FFFFFF" fill-rule="nonzero">
            <g id="Group">
                <path d="M3.5327375,0.91375 C4.5189207,0.842980227 5.48486533,1.21818429 6.16470161,1.93608977 C6.84453789,2.65399526 7.16660734,3.63893099 7.0422625,4.6198 C7.0422625,7.0026125 5.754425,8.3723 3.5327375,8.3723 L0.83865,8.3723 L0.83865,0.91375 L3.5327375,0.91375 Z M1.9970875,7.3175 L3.4033375,7.3175 C4.10811493,7.35962751 4.79435815,7.08194876 5.27152314,6.56156474 C5.74868813,6.04118072 5.96597451,5.33349302 5.86305,4.635 C5.95848627,3.93940567 5.73807073,3.23755777 5.26208884,2.72141748 C4.78610696,2.20527718 4.10436959,1.92885787 3.4033375,1.9677625 L1.9970875,1.9677625 L1.9970875,7.3175 Z" id="Shape"></path>
                <path d="M8.35085,5.555425 C8.25433391,4.54653131 8.73810458,3.57013992 9.59926991,3.03574671 C10.4604352,2.5013535 11.5501023,2.5013535 12.4112676,3.03574671 C13.2724329,3.57013992 13.7562036,4.54653131 13.6596875,5.555425 C13.7580399,6.56540283 13.2747108,7.54368798 12.4127819,8.07923163 C11.550853,8.61477527 10.4596845,8.61477527 9.59775557,8.07923163 C8.73582668,7.54368798 8.25249757,6.56540283 8.35085,5.555425 Z M12.5171125,5.555425 C12.5171125,4.3353375 11.969,3.6218375 11.0071,3.6218375 C10.041525,3.6218375 9.49835,4.3353375 9.49835,5.5554375 C9.49835,6.7853 10.0415625,7.4933 11.0071,7.4933 C11.969025,7.4933 12.5171125,6.7804 12.5171125,5.555425 L12.5171125,5.555425 Z" id="Shape"></path>
                <polygon id="Path" points="20.716575 8.3721875 19.5642375 8.3721875 18.4009125 4.226675 18.313025 4.226675 17.154575 8.3721875 16.0132125 8.3721875 14.4617 2.743525 15.5884125 2.743525 16.5967125 7.038525 16.679725 7.038525 17.83695 2.743525 18.902625 2.743525 20.05985 7.038525 20.1477375 7.038525 21.15115 2.743525 22.2619875 2.743525"></polygon>
                <path d="M23.5669125,2.743525 L24.63625,2.743525 L24.63625,3.6376875 L24.7192625,3.6376875 C25.0079311,2.97934742 25.6824661,2.57663434 26.39895,2.634875 C26.953721,2.59316471 27.4973573,2.80598738 27.8763635,3.21325259 C28.2553696,3.6205178 28.4286163,4.1780297 28.3471875,4.728375 L28.3471875,8.372125 L27.23635,8.372125 L27.23635,5.007325 C27.23635,4.1027875 26.8432875,3.65295 26.02175,3.65295 C25.6454573,3.6354239 25.2802752,3.78310321 25.0219433,4.05727098 C24.7636113,4.33143875 24.6378938,4.70475126 24.67775,5.0793375 L24.67775,8.3721875 L23.5669125,8.3721875 L23.5669125,2.743525 Z" id="Path"></path>
                <polygon id="Path" points="30.1172125 0.54625 31.22805 0.54625 31.22805 8.372175 30.1172125 8.372175"></polygon>
                <path d="M32.7722375,5.555425 C32.6757955,4.54646531 33.1596425,3.5700492 34.0208717,3.03564775 C34.882101,2.5012463 35.971824,2.5012463 36.8330533,3.03564775 C37.6942825,3.5700492 38.1781295,4.54646531 38.0816875,5.555425 C38.179915,6.56543899 37.6964973,7.54369649 36.8345257,8.07921655 C35.972554,8.61473661 34.881371,8.61473661 34.0193993,8.07921655 C33.1574277,7.54369649 32.67401,6.56543899 32.7722375,5.555425 L32.7722375,5.555425 Z M36.9385,5.555425 C36.9385,4.3353375 36.3903875,3.6218375 35.4284875,3.6218375 C34.4629125,3.6218375 33.9197375,4.3353375 33.9197375,5.5554375 C33.9197375,6.7853 34.46295,7.4933 35.4284875,7.4933 C36.3904,7.4933 36.9385,6.7804 36.9385,5.555425 L36.9385,5.555425 Z" id="Shape"></path>
                <path d="M39.251125,6.7804 C39.251125,5.7672125 40.005525,5.1831125 41.344625,5.1001 L42.8692875,5.0122125 L42.8692875,4.526375 C42.8692875,3.9318875 42.476225,3.5962 41.71695,3.5962 C41.0968375,3.5962 40.66715,3.8238625 40.54385,4.2218125 L39.4684125,4.2218125 C39.5819375,3.2550125 40.4913625,2.6349 41.7682125,2.6349 C43.17935,2.6349 43.97525,3.3374 43.97525,4.526375 L43.97525,8.3722 L42.9059125,8.3722 L42.9059125,7.5811875 L42.818025,7.5811875 C42.4548357,8.15884542 41.8089671,8.49645404 41.12735,8.4649375 C40.6495202,8.51463977 40.1729639,8.35988833 39.8154948,8.03894056 C39.4580256,7.71799279 39.2530076,7.26080414 39.251125,6.7804 L39.251125,6.7804 Z M42.8692875,6.2994375 L42.8692875,5.8288625 L41.494775,5.91675 C40.719625,5.968625 40.3680625,6.2323 40.3680625,6.7285125 C40.3680625,7.2351 40.8075125,7.5299 41.4118125,7.5299 C41.7695451,7.56611233 42.126658,7.45559382 42.4014005,7.22364449 C42.676143,6.99169516 42.8449895,6.65817632 42.8692875,6.2994375 Z" id="Shape"></path>
                <path d="M45.4352,5.555425 C45.4352,3.7768625 46.3495125,2.65015 47.771625,2.65015 C48.489721,2.61706267 49.1622844,3.00184108 49.4977,3.63765 L49.5807125,3.63765 L49.5807125,0.54625 L50.69155,0.54625 L50.69155,8.372175 L49.6271,8.372175 L49.6271,7.4828875 L49.5392125,7.4828875 C49.1784427,8.11342123 48.4975932,8.49169559 47.7716375,8.4649375 C46.33975,8.465 45.4352,7.3382625 45.4352,5.555425 Z M46.5827,5.555425 C46.5827,6.749275 47.14545,7.4676625 48.0866125,7.4676625 C49.0228625,7.4676625 49.6015,6.7389125 49.6015,5.5603125 C49.6015,4.3872125 49.0167875,3.648075 48.0866125,3.648075 C47.1515125,3.648075 46.5826625,4.3713375 46.5826625,5.555425 L46.5827,5.555425 Z" id="Shape"></path>
                <path d="M55.2875,5.555425 C55.1909839,4.54653131 55.6747546,3.57013992 56.5359199,3.03574671 C57.3970852,2.5013535 58.4867523,2.5013535 59.3479176,3.03574671 C60.2090829,3.57013992 60.6928536,4.54653131 60.5963375,5.555425 C60.6946899,6.56540283 60.2113608,7.54368798 59.3494319,8.07923163 C58.487503,8.61477527 57.3963345,8.61477527 56.5344056,8.07923163 C55.6724767,7.54368798 55.1891476,6.56540283 55.2875,5.555425 L55.2875,5.555425 Z M59.45375,5.555425 C59.45375,4.3353375 58.90565,3.6218375 57.94375,3.6218375 C56.978175,3.6218375 56.435,4.3353375 56.435,5.5554375 C56.435,6.7853 56.9782125,7.4933 57.94375,7.4933 C58.9056625,7.4933 59.45375,6.7804 59.45375,5.555425 Z" id="Shape"></path>
                <path d="M62.0868125,2.743525 L63.15615,2.743525 L63.15615,3.6376875 L63.2391625,3.6376875 C63.5278311,2.97934742 64.2023661,2.57663434 64.91885,2.634875 C65.473621,2.59316471 66.0172573,2.80598738 66.3962635,3.21325259 C66.7752696,3.6205178 66.9485163,4.1780297 66.8670875,4.728375 L66.8670875,8.372125 L65.75625,8.372125 L65.75625,5.007325 C65.75625,4.1027875 65.3631875,3.65295 64.54165,3.65295 C64.1653573,3.6354239 63.8001752,3.78310321 63.5418433,4.05727098 C63.2835113,4.33143875 63.1577938,4.70475126 63.19765,5.0793375 L63.19765,8.3721875 L62.0868125,8.3721875 L62.0868125,2.743525 Z" id="Path"></path>
                <path d="M73.14395,1.3421625 L73.14395,2.7691625 L74.3634375,2.7691625 L74.3634375,3.7048375 L73.14395,3.7048375 L73.14395,6.599125 C73.14395,7.188725 73.386875,7.4469 73.93985,7.4469 C74.0814195,7.44644692 74.2228468,7.43788708 74.3634375,7.4212625 L74.3634375,8.34655 C74.1639494,8.3822384 73.961832,8.40122505 73.7591875,8.4033125 C72.5238375,8.4033125 72.0318875,7.9687375 72.0318875,6.8835375 L72.0318875,3.7047875 L71.1383375,3.7047875 L71.1383375,2.7691125 L72.0318875,2.7691125 L72.0318875,1.3421625 L73.14395,1.3421625 Z" id="Path"></path>
                <path d="M75.8807625,0.54625 L76.9818375,0.54625 L76.9818375,3.6480625 L77.069725,3.6480625 C77.3722597,2.9839607 78.0586002,2.58073443 78.785975,2.6397625 C79.3375958,2.6097466 79.8738729,2.82725464 80.2487366,3.23304232 C80.6236003,3.63882999 80.7980062,4.19063205 80.72445,4.73815 L80.72445,8.3721875 L79.6125,8.3721875 L79.6125,5.0121875 C79.6125,4.1131375 79.19375,3.6578125 78.4088875,3.6578125 C78.0224237,3.62611709 77.6416739,3.7666137 77.3684279,4.04174188 C77.095182,4.31687006 76.9573024,4.69857539 76.99165,5.0848125 L76.99165,8.3721875 L75.8808125,8.3721875 L75.8807625,0.54625 Z" id="Path"></path>
                <path d="M87.2015625,6.8524125 C86.8900713,7.91413685 85.8626236,8.6001288 84.7626,8.480825 C84.0120549,8.50063775 83.2907393,8.18953837 82.7900353,7.63006895 C82.2893313,7.07059953 82.059858,6.31931992 82.1625,5.5755625 C82.0625842,4.82973809 82.2911978,4.07725467 82.7891135,3.51305869 C83.2870293,2.94886272 84.0052525,2.62847094 84.7577125,2.6348875 C86.323875,2.6348875 87.2687,3.7048875 87.2687,5.4723875 L87.2687,5.86 L83.2940875,5.86 L83.2940875,5.92225 C83.258915,6.33992518 83.4015634,6.75305969 83.686951,7.06005087 C83.9723386,7.36704206 84.3739848,7.5394049 84.7931125,7.53475 C85.3365773,7.59999335 85.8656031,7.3304163 86.132225,6.852375 L87.2015625,6.8524125 Z M83.2940625,5.03845 L86.137075,5.03845 C86.1653911,4.65645055 86.0310731,4.28025634 85.7672212,4.00257387 C85.5033692,3.72489139 85.1345219,3.57154528 84.751575,3.580325 C84.36344,3.57544864 83.989785,3.72752654 83.7153704,4.0020611 C83.4409559,4.27659566 83.2890414,4.65031717 83.2940875,5.03845 L83.2940625,5.03845 Z" id="Shape"></path>
            </g>
        </g>
    </g>
</svg>